<svg width="12" height="10" viewBox="0 0 12 10" fill="none" xmlns="http://www.w3.org/2000/svg">
<path d="M0.666016 4.81738C0.666016 4.56425 0.854118 4.35506 1.09817 4.32195L1.16602 4.31738L11.166 4.31738C11.4422 4.31738 11.666 4.54124 11.666 4.81738C11.666 5.07051 11.4779 5.27971 11.2339 5.31282L11.166 5.31738L1.16602 5.31738C0.889873 5.31738 0.666016 5.09353 0.666016 4.81738Z" fill="#3D3D3D"/>
<path d="M6.78002 1.15563C6.58434 0.96079 6.58366 0.644208 6.7785 0.448526C6.95563 0.270634 7.23337 0.253898 7.42942 0.398712L7.4856 0.447003L11.5189 4.463C11.6974 4.64066 11.7136 4.9194 11.5676 5.11545L11.519 5.1716L7.48563 9.18827C7.28997 9.38313 6.97339 9.38247 6.77853 9.18681C6.60138 9.00893 6.58582 8.73112 6.73146 8.53568L6.77999 8.4797L10.4573 4.81712L6.78002 1.15563Z" fill="#3D3D3D"/>
</svg>
