<svg width="16" height="17" viewBox="0 0 16 17" fill="none" xmlns="http://www.w3.org/2000/svg">
<mask id="mask0_42229_807" style="mask-type:alpha" maskUnits="userSpaceOnUse" x="0" y="3" width="16" height="14">
<path fill-rule="evenodd" clip-rule="evenodd" d="M0.5 3.90527H15.1894V16.0415H0.5V3.90527Z" fill="white"/>
</mask>
<g mask="url(#mask0_42229_807)">
<path fill-rule="evenodd" clip-rule="evenodd" d="M4.03665 5.03027C3.7059 5.03027 2.6004 5.16377 2.28315 6.87677L1.70415 11.3768C1.5159 12.639 1.6614 13.5525 2.13765 14.1053C2.6079 14.6513 3.4494 14.9168 4.7094 14.9168H10.9704C11.7564 14.9168 12.8296 14.76 13.4776 14.0115C13.9921 13.4183 14.1691 12.5348 14.0041 11.385L13.4199 6.84602C13.1709 5.72777 12.5139 5.03027 11.6709 5.03027H4.03665ZM10.9704 16.0418H4.7094C3.10215 16.0418 1.9824 15.648 1.28565 14.8388C0.585898 14.0273 0.351898 12.81 0.590398 11.2215L1.1724 6.70202C1.5549 4.62977 2.95365 3.90527 4.03665 3.90527H11.6709C12.7584 3.90527 14.0806 4.62752 14.5269 6.65327L15.1186 11.2335C15.3309 12.7118 15.0654 13.8975 14.3281 14.748C13.5946 15.594 12.4336 16.0418 10.9704 16.0418Z" fill="#46A358"/>
</g>
<path fill-rule="evenodd" clip-rule="evenodd" d="M11.0734 4.865C10.7629 4.865 10.5109 4.613 10.5109 4.3025C10.5109 2.82575 9.30935 1.625 7.83335 1.625H7.8221C7.11635 1.625 6.4286 1.90925 5.92985 2.405C5.42885 2.90375 5.1416 3.596 5.1416 4.3025C5.1416 4.613 4.8896 4.865 4.5791 4.865C4.2686 4.865 4.0166 4.613 4.0166 4.3025C4.0166 3.29825 4.4246 2.3165 5.1356 1.60775C5.84435 0.9035 6.8216 0.5 7.81985 0.5H7.8356C9.93035 0.5 11.6359 2.2055 11.6359 4.3025C11.6359 4.613 11.3839 4.865 11.0734 4.865Z" fill="#46A358"/>
<path fill-rule="evenodd" clip-rule="evenodd" d="M10.0579 8.24316H10.0234C9.71294 8.24316 9.46094 7.99116 9.46094 7.68066C9.46094 7.37016 9.71294 7.11816 10.0234 7.11816C10.3339 7.11816 10.6032 7.37016 10.6032 7.68066C10.6032 7.99116 10.3684 8.24316 10.0579 8.24316Z" fill="#46A358"/>
<path fill-rule="evenodd" clip-rule="evenodd" d="M5.68414 8.24316H5.65039C5.33989 8.24316 5.08789 7.99116 5.08789 7.68066C5.08789 7.37016 5.33989 7.11816 5.65039 7.11816C5.96089 7.11816 6.23014 7.37016 6.23014 7.68066C6.23014 7.99116 5.99464 8.24316 5.68414 8.24316Z" fill="#46A358"/>
</svg>
