<svg width="20" height="20" viewBox="0 0 20 20" fill="none" xmlns="http://www.w3.org/2000/svg">
<path d="M14.294 16.875H8.24077C5.65655 16.875 3.55412 14.7726 3.55412 12.1883V7.38453C3.55412 4.98223 2.35676 2.75861 0.351225 1.43627C-0.00894369 1.19881 -0.108379 0.714369 0.129078 0.354199C0.366535 -0.00600861 0.850939 -0.105483 1.21119 0.132052C2.35606 0.886915 3.28487 1.88252 3.94905 3.02879C4.09258 3.18958 5.24995 4.41631 7.14726 4.41631H16.142C18.596 4.37042 20.5168 6.83314 19.8752 9.20185L18.8397 13.3288C18.3159 15.4167 16.4466 16.875 14.294 16.875ZM4.91926 5.53724C5.04912 6.13717 5.11634 6.75577 5.11634 7.38453V12.1883C5.11634 13.9112 6.51796 15.3128 8.24077 15.3128H14.294C15.7291 15.3128 16.9752 14.3406 17.3245 12.9487L18.3599 8.82169C18.7412 7.41421 17.5997 5.95131 16.142 5.97853H7.14722C6.28913 5.97853 5.54224 5.79352 4.91926 5.53724ZM7.85021 19.023C7.85021 18.4838 7.41307 18.0467 6.87383 18.0467C5.57828 18.0982 5.57942 19.9483 6.87383 19.9994C7.41307 19.9994 7.85021 19.5623 7.85021 19.023ZM15.6222 19.023C15.6222 18.4838 15.1851 18.0467 14.6459 18.0467C13.3503 18.0982 13.3514 19.9483 14.6459 19.9994C15.1851 19.9994 15.6222 19.5623 15.6222 19.023ZM16.9231 8.32186C16.9231 7.89045 16.5734 7.54075 16.142 7.54075H7.45966C6.42329 7.58199 6.42407 9.06207 7.45966 9.10296H16.142C16.5734 9.10296 16.9231 8.75326 16.9231 8.32186Z" fill="#46A358"/>
</svg>
