<svg width="20" height="18" viewBox="0 0 20 18" fill="none" xmlns="http://www.w3.org/2000/svg">
<path d="M10 17.8873C9.71527 17.8873 9.44077 17.7842 9.22684 17.5968C8.41888 16.8903 7.63992 16.2264 6.95267 15.6408L6.94916 15.6377C4.93423 13.9207 3.19427 12.4378 1.98364 10.9771C0.630341 9.34409 0 7.79578 0 6.10434C0 4.46097 0.563507 2.94485 1.58661 1.83508C2.62192 0.712189 4.04251 0.09375 5.58716 0.09375C6.74164 0.09375 7.79892 0.45874 8.72955 1.1785C9.19922 1.54181 9.62494 1.98645 10 2.5051C10.3752 1.98645 10.8008 1.54181 11.2706 1.1785C12.2012 0.45874 13.2585 0.09375 14.413 0.09375C15.9575 0.09375 17.3782 0.712189 18.4135 1.83508C19.4366 2.94485 20 4.46097 20 6.10434C20 7.79578 19.3698 9.34409 18.0165 10.9769C16.8059 12.4378 15.0661 13.9205 13.0515 15.6374C12.363 16.224 11.5828 16.8889 10.773 17.5971C10.5592 17.7842 10.2846 17.8873 10 17.8873Z" fill="#EF4F4F"/>
</svg>
