<svg width="66" height="80" viewBox="0 0 66 80" fill="none" xmlns="http://www.w3.org/2000/svg">
<path d="M29.6982 25.9313C30.3023 26.1619 30.9799 25.8583 31.2104 25.2532L31.6033 24.2213H34.3758L34.764 25.2499C34.941 25.7191 35.3869 26.0083 35.8605 26.0083C35.998 26.0083 36.1379 25.984 36.2741 25.9325C36.8796 25.7041 37.1852 25.028 36.9566 24.4224L34.2491 17.2479C34.2452 17.2374 34.241 17.2266 34.2368 17.2163C34.0299 16.7129 33.5446 16.3877 33.0004 16.3877C33.0001 16.3877 32.9998 16.3877 32.9994 16.3877C32.4548 16.388 31.9694 16.7139 31.7632 17.2179C31.7596 17.2269 31.7558 17.2357 31.7526 17.2449L29.0202 24.4191C28.7898 25.0238 29.0934 25.7008 29.6982 25.9313ZM33.4913 21.8777H32.496L32.9958 20.5652L33.4913 21.8777Z" fill="#46A358"/>
<path d="M39.3298 26.0082C39.9772 26.0082 40.5017 25.4836 40.5017 24.8363V21.3324L43.2766 25.3505C43.6103 25.833 44.1714 26.0374 44.7061 25.8705C45.2497 25.701 45.6008 25.1986 45.6008 24.5797L45.5328 17.5483C45.5266 16.905 45.0031 16.3877 44.3612 16.3877C44.3573 16.3877 44.3534 16.3877 44.3497 16.3877C43.7023 16.3939 43.1828 16.9238 43.1891 17.5708L43.2237 21.1494L40.2942 16.9072C40.0028 16.4852 39.4712 16.3021 38.9811 16.4544C38.4916 16.6071 38.158 17.0604 38.158 17.5732V24.8361C38.158 25.4836 38.6825 26.0082 39.3298 26.0082Z" fill="#46A358"/>
<path d="M48.248 26.008C48.8953 26.008 49.4198 25.4835 49.4198 24.8361V23.5694L51.607 25.6796C51.8344 25.8989 52.1277 26.0082 52.4205 26.0082C52.7275 26.0082 53.0341 25.8882 53.2639 25.6499C53.7133 25.1843 53.7 24.4422 53.2342 23.993L50.1902 21.056L52.9553 18.5141C53.4319 18.0761 53.4631 17.3347 53.025 16.8583C52.5872 16.3818 51.8456 16.3507 51.3692 16.7886L49.4197 18.5805V17.5596C49.4197 16.9122 48.8952 16.3877 48.2478 16.3877C47.6005 16.3877 47.0759 16.9122 47.0759 17.5596V24.8361C47.0761 25.4835 47.6006 26.008 48.248 26.008Z" fill="#46A358"/>
<path d="M21.408 26.008C22.0553 26.008 22.5798 25.4835 22.5798 24.8361V22.2449H25.2717V24.8361C25.2717 25.4835 25.7962 26.008 26.4436 26.008C27.0909 26.008 27.6155 25.4835 27.6155 24.8361V17.5596C27.6155 16.9122 27.0909 16.3877 26.4436 16.3877C25.7962 16.3877 25.2717 16.9122 25.2717 17.5596V19.9011H22.5798V17.5596C22.5798 16.9122 22.0553 16.3877 21.408 16.3877C20.7606 16.3877 20.2361 16.9122 20.2361 17.5596V24.8361C20.2361 25.4835 20.7606 26.008 21.408 26.008Z" fill="#46A358"/>
<path d="M18.6511 31.6397L20.7839 34.9058L20.7756 38.2727C20.7741 38.9201 21.2975 39.446 21.9445 39.4476H21.9475C22.5935 39.4476 23.1178 38.9248 23.1194 38.2787L23.1277 34.9077L25.2438 31.6568C25.5969 31.1143 25.4435 30.3883 24.9011 30.0354C24.3588 29.6819 23.6327 29.8357 23.2797 30.378L21.955 32.4129L20.6133 30.3583C20.2594 29.8163 19.5336 29.6643 18.9914 30.0179C18.4497 30.3718 18.297 31.0979 18.6511 31.6397Z" fill="#46A358"/>
<path d="M36.7277 36.0062C36.7277 37.1995 37.2938 38.1661 38.4104 38.8796C38.9988 39.2554 39.6618 39.4465 40.381 39.4476H40.3864C41.0038 39.4476 41.5843 39.3131 42.1118 39.0473C43.4118 38.3926 44.1277 37.3107 44.1277 36.0009V30.999C44.1277 30.3517 43.6032 29.8271 42.9558 29.8271C42.3085 29.8271 41.7839 30.3517 41.7839 30.999V36.0009C41.7839 36.3059 41.696 36.6325 41.0575 36.954C40.8574 37.055 40.6379 37.1039 40.3866 37.1039C40.3858 37.1039 40.3849 37.1039 40.3841 37.1039C40.1143 37.1036 39.8813 37.0382 39.6721 36.9046C39.1172 36.5501 39.0713 36.2775 39.0713 36.0064V30.9992C39.0713 30.3518 38.5468 29.8273 37.8994 29.8273C37.2521 29.8273 36.7275 30.3518 36.7275 30.9992V36.0062H36.7277Z" fill="#46A358"/>
<path d="M13.7625 18.7314H14.5918V24.8361C14.5918 25.4835 15.1164 26.008 15.7637 26.008C16.4111 26.008 16.9356 25.4835 16.9356 24.8361V18.7314H17.7811C18.4284 18.7314 18.9529 18.2069 18.9529 17.5596C18.9529 16.9122 18.4284 16.3877 17.7811 16.3877H13.7625C13.1151 16.3877 12.5906 16.9122 12.5906 17.5596C12.5906 18.2069 13.1151 18.7314 13.7625 18.7314Z" fill="#46A358"/>
<path d="M30.6305 29.8271C27.9781 29.8271 25.8203 31.9851 25.8203 34.6373C25.8203 37.2895 27.9783 39.4475 30.6305 39.4475C33.283 39.4475 35.4408 37.2895 35.4408 34.6373C35.4408 31.9851 33.2828 29.8271 30.6305 29.8271ZM30.6305 37.1037C29.2705 37.1037 28.1641 35.9973 28.1641 34.6373C28.1641 33.2773 29.2705 32.1709 30.6305 32.1709C31.9905 32.1709 33.097 33.2773 33.097 34.6373C33.097 35.9973 31.9905 37.1037 30.6305 37.1037Z" fill="#46A358"/>
<path d="M63.7969 28.0734L60.347 24.4797V9.46422C60.347 7.37484 58.6472 5.67484 56.5577 5.67484H42.2933C42.2897 5.67109 42.2867 5.66687 42.2831 5.66313L39.5102 2.77469C37.7923 0.985469 35.4803 0 33 0C30.5197 0 28.2077 0.985469 26.49 2.77469L23.7056 5.675H9.44234C7.35281 5.675 5.65297 7.375 5.65297 9.46437V24.48L2.20313 28.0734C1.05203 29.2725 0.417969 30.8483 0.417969 32.5103V76.2106C0.417969 78.3002 2.11797 80 4.20734 80H61.7925C63.8819 80 65.5819 78.3002 65.5819 76.2106V32.5103C65.5819 30.8483 64.948 29.2725 63.7969 28.0734ZM62.1061 29.6967C62.8361 30.457 63.2381 31.4564 63.2381 32.5105V35.168L60.3469 38.1797V27.8641L62.1061 29.6967ZM28.1806 4.39781C29.4523 3.07328 31.1637 2.34375 33 2.34375C34.8363 2.34375 36.5477 3.07328 37.8194 4.39781L39.0453 5.67484H26.9547L28.1806 4.39781ZM9.44234 8.01859H56.5575C57.3547 8.01859 58.0031 8.66703 58.0031 9.46422V40.6209L45.5639 53.5784L39.5098 47.2722C37.7922 45.483 35.4802 44.4975 32.9998 44.4975C30.5195 44.4975 28.2075 45.483 26.4898 47.2722L20.4358 53.5784L7.99656 40.6209V9.46422C7.99672 8.66719 8.64531 8.01859 9.44234 8.01859ZM18.8116 55.2706L2.76188 71.9891V38.5522L18.8116 55.2706ZM2.76188 32.5103C2.76188 31.4562 3.16391 30.4569 3.89391 29.6966L5.65313 27.8641V38.1794L2.76188 35.1677V32.5103ZM61.7925 77.6562H4.2075C3.41031 77.6562 2.76188 77.0078 2.76188 76.2106V75.3733L28.1808 48.8953C29.4525 47.5706 31.1639 46.8412 33.0002 46.8412C34.8364 46.8412 36.5478 47.5708 37.8195 48.8953L47.2317 58.6997C47.68 59.1667 48.4217 59.1814 48.8886 58.7334C49.3553 58.2853 49.3706 57.5434 48.9223 57.0766L47.1886 55.2706L63.2383 38.5522V71.9891L52.6914 61.0028C52.2431 60.5359 51.5014 60.5209 51.0345 60.9691C50.5678 61.4172 50.5525 62.1591 51.0008 62.6259L63.2383 75.3733V76.2105C63.2381 77.0078 62.5897 77.6562 61.7925 77.6562Z" fill="#46A358"/>
</svg>
