<svg width="18" height="18" viewBox="0 0 18 18" fill="none" xmlns="http://www.w3.org/2000/svg">
<mask id="mask0_42096_2153" style="mask-type:alpha" maskUnits="userSpaceOnUse" x="1" y="4" width="16" height="14">
<path fill-rule="evenodd" clip-rule="evenodd" d="M1.5 4.90527H16.1894V17.0415H1.5V4.90527Z" fill="white"/>
</mask>
<g mask="url(#mask0_42096_2153)">
<path fill-rule="evenodd" clip-rule="evenodd" d="M5.03665 6.03027C4.7059 6.03027 3.6004 6.16377 3.28315 7.87677L2.70415 12.3768C2.5159 13.639 2.6614 14.5525 3.13765 15.1053C3.6079 15.6513 4.4494 15.9168 5.7094 15.9168H11.9704C12.7564 15.9168 13.8296 15.76 14.4776 15.0115C14.9921 14.4183 15.1691 13.5348 15.0041 12.385L14.4199 7.84602C14.1709 6.72777 13.5139 6.03027 12.6709 6.03027H5.03665ZM11.9704 17.0418H5.7094C4.10215 17.0418 2.9824 16.648 2.28565 15.8388C1.5859 15.0273 1.3519 13.81 1.5904 12.2215L2.1724 7.70202C2.5549 5.62977 3.95365 4.90527 5.03665 4.90527H12.6709C13.7584 4.90527 15.0806 5.62752 15.5269 7.65327L16.1186 12.2335C16.3309 13.7118 16.0654 14.8975 15.3281 15.748C14.5946 16.594 13.4336 17.0418 11.9704 17.0418Z" fill="#727272"/>
</g>
<path fill-rule="evenodd" clip-rule="evenodd" d="M12.0734 5.865C11.7629 5.865 11.5109 5.613 11.5109 5.3025C11.5109 3.82575 10.3094 2.625 8.83335 2.625H8.8221C8.11635 2.625 7.4286 2.90925 6.92985 3.405C6.42885 3.90375 6.1416 4.596 6.1416 5.3025C6.1416 5.613 5.8896 5.865 5.5791 5.865C5.2686 5.865 5.0166 5.613 5.0166 5.3025C5.0166 4.29825 5.4246 3.3165 6.1356 2.60775C6.84435 1.9035 7.8216 1.5 8.81985 1.5H8.8356C10.9304 1.5 12.6359 3.2055 12.6359 5.3025C12.6359 5.613 12.3839 5.865 12.0734 5.865Z" fill="#727272"/>
<path fill-rule="evenodd" clip-rule="evenodd" d="M11.0574 9.24316H11.0229C10.7124 9.24316 10.4604 8.99116 10.4604 8.68066C10.4604 8.37016 10.7124 8.11816 11.0229 8.11816C11.3334 8.11816 11.6027 8.37016 11.6027 8.68066C11.6027 8.99116 11.3679 9.24316 11.0574 9.24316Z" fill="#727272"/>
<path fill-rule="evenodd" clip-rule="evenodd" d="M6.68414 9.24316H6.65039C6.33989 9.24316 6.08789 8.99116 6.08789 8.68066C6.08789 8.37016 6.33989 8.11816 6.65039 8.11816C6.96089 8.11816 7.23014 8.37016 7.23014 8.68066C7.23014 8.99116 6.99464 9.24316 6.68414 9.24316Z" fill="#727272"/>
</svg>
